<?xml version="1.0" encoding="UTF-8"?>
<svg xmlns="http://www.w3.org/2000/svg" xmlns:xlink="http://www.w3.org/1999/xlink" width="70px" height="79px" viewBox="0 0 70 70" version="1.1">
<g id="surface1">
<path style=" stroke:none;fill-rule:nonzero;fill:rgb(1.176471%,34.901961%,61.176471%);fill-opacity:1;" d="M 64.257812 18.320312 L 64.421875 18.210938 C 64.09375 17.609375 63.601562 17.0625 63.109375 16.789062 L 36.695312 1.585938 C 36.257812 1.3125 35.65625 1.203125 35 1.203125 C 34.34375 1.203125 33.742188 1.367188 33.304688 1.585938 L 7.054688 16.84375 C 6.125 17.390625 5.46875 18.757812 5.46875 19.796875 L 5.46875 50.257812 C 5.46875 50.859375 5.578125 51.515625 5.960938 52.117188 L 5.851562 52.171875 C 6.125 52.609375 6.507812 52.992188 6.890625 53.210938 L 33.25 68.46875 C 33.6875 68.742188 34.289062 68.851562 34.945312 68.851562 C 35.601562 68.851562 36.203125 68.6875 36.640625 68.46875 L 62.890625 53.210938 C 63.820312 52.664062 64.476562 51.296875 64.476562 50.257812 L 64.476562 19.742188 C 64.53125 19.304688 64.476562 18.8125 64.257812 18.320312 Z M 35 48.398438 C 39.976562 48.398438 44.351562 45.664062 46.648438 41.617188 L 53.703125 45.773438 C 49.984375 52.226562 42.984375 56.601562 35 56.601562 C 23.078125 56.601562 13.398438 46.921875 13.398438 35 C 13.398438 23.078125 23.078125 13.398438 35 13.398438 C 43.039062 13.398438 50.039062 17.828125 53.757812 24.335938 L 46.648438 28.4375 C 44.351562 24.335938 39.976562 21.601562 35 21.601562 C 27.617188 21.601562 21.601562 27.617188 21.601562 35 C 21.601562 42.382812 27.617188 48.398438 35 48.398438 Z M 35 48.398438 "/>
</g>
</svg>
