<?xml version="1.0" encoding="UTF-8"?>
<svg xmlns="http://www.w3.org/2000/svg" xmlns:xlink="http://www.w3.org/1999/xlink" width="70px" height="79px" viewBox="0 0 70 78" version="1.1">
<g id="surface1">
<path style=" stroke:none;fill-rule:nonzero;fill:rgb(36.078431%,55.294118%,73.72549%);fill-opacity:1;" d="M 69.882812 22.941406 C 69.882812 21.632812 69.597656 20.480469 69.027344 19.488281 C 68.46875 18.511719 67.625 17.695312 66.5 17.046875 C 57.195312 11.734375 47.882812 6.4375 38.582031 1.121094 C 36.074219 -0.3125 33.644531 -0.261719 31.15625 1.191406 C 27.453125 3.355469 8.910156 13.875 3.386719 17.042969 C 1.109375 18.347656 0.00390625 20.34375 0.00390625 22.941406 C 0 33.625 0.00390625 44.308594 0 54.996094 C 0 56.273438 0.269531 57.40625 0.816406 58.382812 C 1.378906 59.390625 2.230469 60.230469 3.382812 60.890625 C 8.910156 64.058594 27.453125 74.578125 31.152344 76.742188 C 33.644531 78.195312 36.074219 78.25 38.582031 76.816406 C 47.882812 71.496094 57.199219 66.199219 66.503906 60.886719 C 67.65625 60.226562 68.507812 59.386719 69.070312 58.382812 C 69.613281 57.402344 69.886719 56.269531 69.886719 54.992188 C 69.886719 54.992188 69.886719 33.628906 69.882812 22.941406 "/>
<path style=" stroke:none;fill-rule:nonzero;fill:rgb(10.196078%,27.45098%,45.490196%);fill-opacity:1;" d="M 35.050781 38.863281 L 0.816406 58.382812 C 1.378906 59.390625 2.230469 60.230469 3.382812 60.890625 C 8.910156 64.058594 27.453125 74.578125 31.152344 76.742188 C 33.644531 78.195312 36.074219 78.25 38.582031 76.816406 C 47.882812 71.496094 57.199219 66.199219 66.503906 60.886719 C 67.65625 60.226562 68.507812 59.386719 69.070312 58.382812 L 35.050781 38.863281 "/>
<path style=" stroke:none;fill-rule:nonzero;fill:rgb(10.196078%,27.45098%,45.490196%);fill-opacity:1;" d="M 24.910156 44.644531 C 26.902344 48.089844 30.648438 50.414062 34.941406 50.414062 C 39.265625 50.414062 43.03125 48.058594 45.011719 44.578125 L 35.050781 38.863281 L 24.910156 44.644531 "/>
<path style=" stroke:none;fill-rule:nonzero;fill:rgb(10.588235%,34.901961%,55.686275%);fill-opacity:1;" d="M 69.882812 22.941406 C 69.882812 21.632812 69.597656 20.480469 69.027344 19.488281 L 35.050781 38.863281 L 69.070312 58.382812 C 69.613281 57.402344 69.886719 56.269531 69.886719 54.992188 C 69.886719 54.992188 69.886719 33.628906 69.882812 22.941406 "/>
<path style=" stroke:none;fill-rule:nonzero;fill:rgb(100%,100%,100%);fill-opacity:1;" d="M 68.011719 40.257812 L 65.351562 40.257812 L 65.351562 42.890625 L 62.695312 42.890625 L 62.695312 40.257812 L 60.035156 40.257812 L 60.035156 37.625 L 62.695312 37.625 L 62.695312 34.992188 L 65.351562 34.992188 L 65.351562 37.625 L 68.011719 37.625 L 68.011719 40.257812 M 58.3125 40.257812 L 55.652344 40.257812 L 55.652344 42.890625 L 52.996094 42.890625 L 52.996094 40.257812 L 50.335938 40.257812 L 50.335938 37.625 L 52.996094 37.625 L 52.996094 34.992188 L 55.652344 34.992188 L 55.652344 37.625 L 58.3125 37.625 L 58.3125 40.257812 "/>
<path style=" stroke:none;fill-rule:nonzero;fill:rgb(100%,100%,100%);fill-opacity:1;" d="M 45.011719 44.578125 C 43.03125 48.058594 39.265625 50.414062 34.941406 50.414062 C 30.648438 50.414062 26.902344 48.089844 24.910156 44.644531 C 23.910156 42.917969 23.382812 40.960938 23.386719 38.96875 C 23.386719 32.644531 28.558594 27.523438 34.941406 27.523438 C 39.210938 27.523438 42.9375 29.816406 44.9375 33.226562 L 55.039062 27.464844 C 51.023438 20.601562 43.527344 15.984375 34.941406 15.984375 C 22.125 15.984375 11.734375 26.273438 11.734375 38.96875 C 11.734375 43.132812 12.851562 47.035156 14.808594 50.40625 C 18.8125 57.304688 26.332031 61.953125 34.941406 61.953125 C 43.570312 61.953125 51.101562 57.285156 55.097656 50.367188 L 45.011719 44.578125 "/>
</g>
</svg>
