<?xml version="1.0" encoding="UTF-8"?>
<svg xmlns="http://www.w3.org/2000/svg" xmlns:xlink="http://www.w3.org/1999/xlink" width="60px" height="60px" viewBox="0 0 60 60" version="1.1">
<g id="surface1">
<path style=" stroke:none;fill-rule:nonzero;fill:rgb(0%,0%,0%);fill-opacity:1;" d="M 48.601562 32.5 C 48.050781 32.5 47.476562 32.324219 46.925781 32.199219 C 45.8125 31.953125 44.714844 31.628906 43.648438 31.226562 C 41.25 30.351562 38.574219 31.429688 37.449219 33.726562 L 36.898438 34.851562 C 34.464844 33.496094 32.226562 31.8125 30.25 29.851562 C 28.285156 27.871094 26.605469 25.636719 25.25 23.199219 L 26.300781 22.5 C 28.59375 21.375 29.671875 18.703125 28.800781 16.300781 C 28.402344 15.230469 28.078125 14.136719 27.824219 13.023438 C 27.699219 12.476562 27.601562 11.898438 27.523438 11.324219 C 26.898438 7.6875 23.714844 5.046875 20.023438 5.101562 L 12.523438 5.101562 C 10.34375 5.078125 8.265625 6.007812 6.824219 7.644531 C 5.382812 9.28125 4.726562 11.464844 5.023438 13.625 C 7.765625 35.171875 24.769531 52.113281 46.324219 54.773438 L 47.273438 54.773438 C 49.117188 54.777344 50.898438 54.101562 52.273438 52.875 C 53.875 51.445312 54.785156 49.394531 54.773438 47.25 L 54.773438 39.75 C 54.710938 36.167969 52.125 33.132812 48.601562 32.5 Z M 49.851562 47.5 C 49.847656 48.21875 49.539062 48.902344 49 49.375 C 48.433594 49.863281 47.691406 50.089844 46.949219 50 C 27.691406 47.53125 12.554688 32.320312 10.175781 13.050781 C 10.09375 12.308594 10.320312 11.570312 10.800781 11 C 11.273438 10.460938 11.957031 10.152344 12.675781 10.148438 L 20.175781 10.148438 C 21.375 10.125 22.421875 10.953125 22.675781 12.125 C 22.773438 12.808594 22.898438 13.484375 23.050781 14.148438 C 23.339844 15.46875 23.722656 16.761719 24.199219 18.023438 L 20.699219 19.648438 C 20.09375 19.925781 19.625 20.433594 19.398438 21.058594 C 19.167969 21.683594 19.195312 22.371094 19.476562 22.976562 C 23.074219 30.683594 29.269531 36.878906 36.976562 40.476562 C 37.582031 40.726562 38.265625 40.726562 38.875 40.476562 C 39.503906 40.25 40.019531 39.78125 40.300781 39.175781 L 41.851562 35.675781 C 43.140625 36.136719 44.460938 36.519531 45.800781 36.824219 C 46.464844 36.976562 47.140625 37.101562 47.824219 37.199219 C 48.996094 37.453125 49.828125 38.5 49.800781 39.699219 Z M 49.851562 47.5 "/>
</g>
</svg>
