<?xml version="1.0" encoding="UTF-8"?>
<svg xmlns="http://www.w3.org/2000/svg" xmlns:xlink="http://www.w3.org/1999/xlink" width="70px" height="70px" viewBox="0 0 70 70" version="1.1">
<g id="surface1">
<path style=" stroke:none;fill-rule:nonzero;fill:rgb(8.235294%,44.705882%,71.372549%);fill-opacity:1;" d="M 10.289062 62.410156 L 4.789062 0.738281 L 65.210938 0.738281 L 59.707031 62.402344 L 34.964844 69.261719 Z M 10.289062 62.410156 "/>
<path style=" stroke:none;fill-rule:nonzero;fill:rgb(20%,66.27451%,86.27451%);fill-opacity:1;" d="M 35 64.019531 L 54.992188 58.476562 L 59.699219 5.78125 L 35 5.78125 Z M 35 64.019531 "/>
<path style=" stroke:none;fill-rule:nonzero;fill:rgb(100%,100%,100%);fill-opacity:1;" d="M 35 28.125 L 45.007812 28.125 L 45.699219 20.378906 L 35 20.378906 L 35 12.816406 L 53.96875 12.816406 L 53.785156 14.84375 L 51.925781 35.6875 L 35 35.6875 Z M 35 28.125 "/>
<path style=" stroke:none;fill-rule:nonzero;fill:rgb(92.156863%,92.156863%,92.156863%);fill-opacity:1;" d="M 35.046875 47.769531 L 35.011719 47.777344 L 26.589844 45.503906 L 26.050781 39.472656 L 18.457031 39.472656 L 19.515625 51.347656 L 35.011719 55.648438 L 35.046875 55.636719 Z M 35.046875 47.769531 "/>
<path style=" stroke:none;fill-rule:nonzero;fill:rgb(100%,100%,100%);fill-opacity:1;" d="M 44.367188 35.367188 L 43.457031 45.5 L 35.019531 47.777344 L 35.019531 55.644531 L 50.523438 51.347656 L 50.640625 50.070312 L 51.953125 35.367188 Z M 44.367188 35.367188 "/>
<path style=" stroke:none;fill-rule:nonzero;fill:rgb(92.156863%,92.156863%,92.156863%);fill-opacity:1;" d="M 35.027344 12.816406 L 35.027344 20.378906 L 16.757812 20.378906 L 16.605469 18.679688 L 16.261719 14.84375 L 16.078125 12.816406 Z M 35 28.125 L 35 35.691406 L 26.683594 35.691406 L 26.53125 33.992188 L 26.1875 30.15625 L 26.007812 28.125 Z M 35 28.125 "/>
</g>
</svg>
