<?xml version="1.0" encoding="UTF-8"?>
<svg xmlns="http://www.w3.org/2000/svg" xmlns:xlink="http://www.w3.org/1999/xlink" width="30px" height="30px" viewBox="0 0 30 30" version="1.1">
<g id="surface1">
<path style="fill:none;stroke-width:1;stroke-linecap:round;stroke-linejoin:round;stroke:rgb(18.823529%,23.529412%,25.882353%);stroke-opacity:1;stroke-miterlimit:4;" d="M 12 0.5 C 5.65 0.5 0.5 5.65 0.5 12 C 0.490625 17.45 4.20625 22.2 9.5 23.5 L 9.5 20.5 L 8.5 20.5 C 5.88125 20.5 4.959375 16.5 3.5 16.5 C 6.290625 16.5 6.83125 18.5 8.5 18.5 C 8.775 18.5375 9.05 18.44375 9.246875 18.246875 C 9.44375 18.05 9.5375 17.775 9.5 17.5 L 9.5 17.15 C 6.590625 16.33125 4.5 14.15 4.5 11.5 C 4.521875 10.121875 5.0875 8.80625 6.06875 7.840625 C 5.559375 6.7375 5.725 5.4375 6.5 4.5 C 7.415625 4.775 8.2375 5.29375 8.88125 6 C 10.896875 5.26875 13.103125 5.26875 15.11875 6 C 15.7625 5.29375 16.584375 4.775 17.5 4.5 C 18.275 5.4375 18.440625 6.7375 17.93125 7.840625 C 18.9125 8.80625 19.478125 10.121875 19.5 11.5 C 19.5 14.240625 17.209375 16.5 14.08125 17.259375 C 14.403125 17.959375 14.546875 18.73125 14.5 19.5 L 14.5 23.5 C 19.79375 22.2 23.509375 17.45 23.5 12 C 23.5 5.65 18.35 0.5 12 0.5 Z M 12 0.5 " transform="matrix(1.25,0,0,1.25,0,0)"/>
</g>
</svg>
