<?xml version="1.0" encoding="UTF-8"?>
<svg xmlns="http://www.w3.org/2000/svg" xmlns:xlink="http://www.w3.org/1999/xlink" width="70px" height="70px" viewBox="0 0 70 70" version="1.1">
<g id="surface1">
<path style=" stroke:none;fill-rule:nonzero;fill:rgb(89.019608%,30.980392%,14.901961%);fill-opacity:1;" d="M 9.707031 62.890625 L 4.101562 0 L 65.761719 0 L 60.15625 62.890625 L 34.863281 70 "/>
<path style=" stroke:none;fill-rule:nonzero;fill:rgb(93.72549%,39.607843%,16.470588%);fill-opacity:1;" d="M 35 64.53125 L 55.371094 58.925781 L 60.15625 5.058594 L 35 5.058594 "/>
<path style=" stroke:none;fill-rule:nonzero;fill:rgb(92.156863%,92.156863%,92.156863%);fill-opacity:1;" d="M 35 28.4375 L 24.746094 28.4375 L 24.0625 20.507812 L 35 20.507812 L 35 12.851562 L 15.585938 12.851562 L 17.636719 36.230469 L 35 36.230469 Z M 34.863281 48.535156 L 26.25 46.210938 L 25.703125 40.058594 L 18.046875 40.058594 L 19.003906 52.226562 L 34.863281 56.601562 Z M 34.863281 48.535156 "/>
<path style=" stroke:none;fill-rule:nonzero;fill:rgb(100%,100%,100%);fill-opacity:1;" d="M 34.863281 28.4375 L 34.863281 36.230469 L 44.433594 36.230469 L 43.476562 46.210938 L 34.863281 48.535156 L 34.863281 56.601562 L 50.722656 52.226562 L 52.910156 28.4375 Z M 34.863281 12.851562 L 34.863281 20.507812 L 53.59375 20.507812 L 54.277344 12.851562 Z M 34.863281 12.851562 "/>
</g>
</svg>
