<?xml version="1.0" encoding="UTF-8"?>
<svg xmlns="http://www.w3.org/2000/svg" xmlns:xlink="http://www.w3.org/1999/xlink" width="30px" height="30px" viewBox="0 0 30 30" version="1.1">
<defs>
<linearGradient id="linear0" gradientUnits="userSpaceOnUse" x1="-1.84" y1="30.47" x2="32.16" y2="-3.03" gradientTransform="matrix(1.039141,0,0,1.039141,0,0)">
<stop offset="0" style="stop-color:rgb(99.607843%,83.529412%,46.27451%);stop-opacity:1;"/>
<stop offset="0.26" style="stop-color:rgb(95.686275%,44.313725%,20%);stop-opacity:1;"/>
<stop offset="0.61" style="stop-color:rgb(73.72549%,18.823529%,50.588235%);stop-opacity:1;"/>
<stop offset="1" style="stop-color:rgb(29.803922%,38.823529%,82.352941%);stop-opacity:1;"/>
</linearGradient>
</defs>
<g id="surface1">
<path style=" stroke:none;fill-rule:nonzero;fill:url(#linear0);" d="M 6.734375 0 L 23.265625 0 C 26.984375 0 30 3.015625 30 6.734375 L 30 23.265625 C 30 26.984375 26.984375 30 23.265625 30 L 6.734375 30 C 3.015625 30 0 26.984375 0 23.265625 L 0 6.734375 C 0 3.015625 3.015625 0 6.734375 0 Z M 6.734375 0 "/>
<path style=" stroke:none;fill-rule:nonzero;fill:rgb(100%,100%,100%);fill-opacity:1;" d="M 10.390625 5.195312 L 19.742188 5.195312 C 19.953125 5.300781 20.261719 5.300781 20.472656 5.402344 C 22.332031 5.703125 23.859375 7.03125 24.417969 8.832031 C 24.574219 9.339844 24.675781 9.863281 24.730469 10.390625 L 24.730469 19.535156 C 24.582031 20.695312 24.15625 21.800781 23.484375 22.757812 C 22.320312 24.109375 20.589844 24.839844 18.808594 24.730469 L 11.015625 24.730469 C 9.625 24.800781 8.257812 24.355469 7.171875 23.484375 C 5.832031 22.328125 5.101562 20.617188 5.195312 18.851562 L 5.195312 11.574219 C 5.179688 11.054688 5.214844 10.53125 5.300781 10.015625 C 5.515625 7.832031 7.105469 6.03125 9.25 5.550781 Z M 7.171875 15.066406 L 7.171875 19.121094 C 7.082031 20.164062 7.457031 21.195312 8.199219 21.9375 C 8.9375 22.679688 9.96875 23.054688 11.015625 22.964844 C 13.714844 23.070312 16.417969 23.070312 19.121094 22.964844 C 21.511719 22.964844 22.859375 21.511719 22.964844 19.121094 C 23.070312 16.417969 23.070312 13.714844 22.964844 11.015625 C 23.019531 9.980469 22.632812 8.96875 21.898438 8.238281 C 21.164062 7.503906 20.15625 7.117188 19.121094 7.171875 C 16.417969 7.066406 13.714844 7.066406 11.015625 7.171875 C 9.96875 7.082031 8.9375 7.457031 8.199219 8.199219 C 7.457031 8.9375 7.082031 9.96875 7.171875 11.015625 Z M 7.171875 15.066406 "/>
<path style=" stroke:none;fill-rule:nonzero;fill:rgb(100%,100%,100%);fill-opacity:1;" d="M 10.015625 15.109375 C 10.023438 12.300781 12.300781 10.023438 15.109375 10.015625 C 17.898438 10.074219 20.144531 12.320312 20.199219 15.109375 C 20.195312 17.917969 17.917969 20.195312 15.109375 20.199219 C 12.320312 20.144531 10.074219 17.898438 10.015625 15.109375 Z M 15.109375 11.886719 C 13.816406 11.867188 12.644531 12.632812 12.140625 13.820312 C 11.636719 15.007812 11.902344 16.382812 12.816406 17.296875 C 13.730469 18.210938 15.105469 18.480469 16.292969 17.976562 C 17.484375 17.472656 18.246094 16.296875 18.226562 15.003906 C 18.226562 13.285156 16.832031 11.886719 15.109375 11.886719 Z M 15.109375 11.886719 "/>
<path style=" stroke:none;fill-rule:nonzero;fill:rgb(100%,100%,100%);fill-opacity:1;" d="M 19.058594 9.808594 C 19.046875 9.476562 19.171875 9.152344 19.410156 8.914062 C 19.648438 8.679688 19.96875 8.550781 20.304688 8.5625 C 20.972656 8.609375 21.507812 9.140625 21.550781 9.808594 C 21.550781 10.5 20.992188 11.054688 20.304688 11.054688 C 19.617188 11.054688 19.058594 10.5 19.058594 9.808594 Z M 19.058594 9.808594 "/>
</g>
</svg>
