<?xml version="1.0" encoding="UTF-8"?>
<svg xmlns="http://www.w3.org/2000/svg" xmlns:xlink="http://www.w3.org/1999/xlink" width="50px" height="70px" viewBox="0 0 50 70" version="1.1">
<g id="surface1">
<path style=" stroke:none;fill-rule:nonzero;fill:rgb(90.196078%,63.921569%,16.078431%);fill-opacity:1;" d="M 49.722656 13.667969 L 0 13.667969 L 4.660156 64.03125 L 24.859375 69.742188 L 45.054688 64.03125 Z M 49.722656 13.667969 "/>
<path style=" stroke:none;fill-rule:nonzero;fill:rgb(94.509804%,74.901961%,13.333333%);fill-opacity:1;" d="M 24.859375 17.769531 L 24.859375 65.472656 L 41.222656 60.851562 L 45.203125 17.769531 Z M 24.859375 17.769531 "/>
<path style=" stroke:none;fill-rule:nonzero;fill:rgb(100%,100%,100%);fill-opacity:1;" d="M 37.878906 23.949219 L 12.714844 23.949219 L 10.964844 42.804688 L 11 42.6875 L 32.375 42.6875 L 31.679688 50.664062 L 24.859375 52.621094 L 17.9375 50.632812 L 17.523438 45.804688 L 11.242188 45.804688 L 12.136719 55.453125 L 24.859375 59.050781 L 37.585938 55.453125 L 39.339844 36.515625 L 16.652344 36.515625 L 16.945312 30.203125 L 32.683594 30.203125 L 32.917969 33.820312 L 39.253906 33.820312 Z M 37.878906 23.949219 "/>
<path style=" stroke:none;fill-rule:nonzero;fill:rgb(92.156863%,92.156863%,92.156863%);fill-opacity:1;" d="M 24.863281 23.949219 L 12.714844 23.949219 L 10.964844 42.804688 L 11 42.6875 L 24.863281 42.6875 L 24.863281 36.535156 L 17.539062 36.535156 L 17.828125 30.226562 L 24.863281 30.226562 Z M 17.539062 45.808594 L 11.242188 45.808594 L 12.136719 55.453125 L 24.859375 59.046875 L 24.859375 52.628906 L 17.9375 50.636719 Z M 17.539062 45.808594 "/>
<path style=" stroke:none;fill-rule:nonzero;fill:rgb(13.72549%,12.156863%,12.54902%);fill-opacity:1;" d="M 20.023438 6.238281 L 15.597656 6.238281 L 15.597656 9.402344 L 23.191406 9.402344 L 23.191406 0 L 20.027344 0 Z M 34.125 0.0507812 L 26.40625 0.0507812 L 26.40625 3.34375 C 27.4375 4.367188 27.976562 4.863281 29.492188 6.351562 L 26.40625 6.351562 L 26.40625 9.351562 L 34.121094 9.351562 L 34.121094 6.355469 L 31.039062 3.347656 L 34.125 3.347656 Z M 34.125 0.0507812 "/>
</g>
</svg>
