<?xml version="1.0" encoding="UTF-8"?>
<svg xmlns="http://www.w3.org/2000/svg" xmlns:xlink="http://www.w3.org/1999/xlink" width="30px" height="30px" viewBox="0 0 30 30" version="1.1">
<g id="surface1">
<path style=" stroke:none;fill-rule:nonzero;fill:rgb(9.803922%,46.27451%,82.352941%);fill-opacity:1;" d="M 0 9.375 L 6.707031 9.375 L 6.707031 30 L 0 30 Z M 24.984375 9.617188 C 24.910156 9.59375 24.84375 9.570312 24.769531 9.550781 C 22.132812 9.5625 19.980469 7.4375 19.96875 4.800781 C 19.953125 2.164062 22.078125 0.015625 24.714844 0 C 20.804688 0 18.324219 2.84375 17.507812 3.941406 L 17.507812 9.375 L 9.375 9.375 L 9.375 30 L 16.082031 30 L 16.082031 18.75 C 16.082031 18.75 21.152344 11.6875 23.292969 16.875 L 23.292969 30 L 30 30 L 30 16.082031 C 25.558594 17.867188 20.511719 15.714844 18.726562 11.273438 C 16.941406 6.832031 19.09375 1.785156 23.535156 0 Z M 24.984375 9.617188 "/>
<path style=" stroke:none;fill-rule:nonzero;fill:rgb(9.803922%,46.27451%,82.352941%);fill-opacity:1;" d="M 6.5625 3.28125 C 6.5625 5.09375 5.09375 6.5625 3.28125 6.5625 C 1.46875 6.5625 0 5.09375 0 3.28125 C 0 1.46875 1.46875 0 3.28125 0 C 5.09375 0 6.5625 1.46875 6.5625 3.28125 Z M 6.5625 3.28125 "/>
</g>
</svg>
