<?xml version="1.0" encoding="UTF-8"?>
<svg xmlns="http://www.w3.org/2000/svg" xmlns:xlink="http://www.w3.org/1999/xlink" width="50px" height="60px" viewBox="0 0 50 60" version="1.1">
<g id="surface1">
<path style="fill:none;stroke-width:2;stroke-linecap:round;stroke-linejoin:round;stroke:rgb(0%,0%,0%);stroke-opacity:1;stroke-miterlimit:4;" d="M 18 9 C 18 16 9 22 9 22 C 9 22 0 16 0 9 C 0 4.029688 4.029688 0 9 0 C 13.970313 0 18 4.029688 18 9 Z M 18 9 " transform="matrix(2.5,0,0,2.5,2.5,2.5)"/>
<path style="fill:none;stroke-width:2;stroke-linecap:round;stroke-linejoin:round;stroke:rgb(0%,0%,0%);stroke-opacity:1;stroke-miterlimit:4;" d="M 12 9 C 12 10.65625 10.65625 12 9 12 C 7.34375 12 6 10.65625 6 9 C 6 7.34375 7.34375 6 9 6 C 10.65625 6 12 7.34375 12 9 Z M 12 9 " transform="matrix(2.5,0,0,2.5,2.5,2.5)"/>
</g>
</svg>
