<?xml version="1.0" encoding="UTF-8"?>
<svg xmlns="http://www.w3.org/2000/svg" xmlns:xlink="http://www.w3.org/1999/xlink" width="60px" height="60px" viewBox="0 0 60 60" version="1.1">
<g id="surface1">
<path style=" stroke:none;fill-rule:nonzero;fill:rgb(0%,0%,0%);fill-opacity:1;" d="M 47.5 10 L 12.5 10 C 8.359375 10 5 13.359375 5 17.5 L 5 42.5 C 5 46.640625 8.359375 50 12.5 50 L 47.5 50 C 51.640625 50 55 46.640625 55 42.5 L 55 17.5 C 55 13.359375 51.640625 10 47.5 10 Z M 12.5 15 L 47.5 15 C 48.878906 15 50 16.121094 50 17.5 L 30 29.699219 L 10 17.5 C 10 16.121094 11.121094 15 12.5 15 Z M 50 42.5 C 50 43.878906 48.878906 45 47.5 45 L 12.5 45 C 11.121094 45 10 43.878906 10 42.5 L 10 23.199219 L 28.699219 34.625 C 29.472656 35.070312 30.425781 35.070312 31.199219 34.625 L 50 23.199219 Z M 50 42.5 "/>
</g>
</svg>
