<?xml version="1.0" encoding="UTF-8"?>
<svg xmlns="http://www.w3.org/2000/svg" xmlns:xlink="http://www.w3.org/1999/xlink" width="70px" height="79px" viewBox="0 0 70 70" version="1.1">
<defs>
<linearGradient id="linear0" gradientUnits="userSpaceOnUse" x1="0.12959" y1="0.12039" x2="0.79639" y2="0.78201" gradientTransform="matrix(51.752604,0,0,51.233073,0.0410157,0.601562)">
<stop offset="0" style="stop-color:rgb(21.960784%,49.411765%,72.156863%);stop-opacity:1;"/>
<stop offset="1" style="stop-color:rgb(21.176471%,41.176471%,58.039216%);stop-opacity:1;"/>
</linearGradient>
<linearGradient id="linear1" gradientUnits="userSpaceOnUse" x1="0.19128" y1="0.20579" x2="0.90742" y2="0.88429" gradientTransform="matrix(51.752604,0,0,51.233073,18.110678,17.946614)">
<stop offset="0" style="stop-color:rgb(100%,87.843137%,32.156863%);stop-opacity:1;"/>
<stop offset="1" style="stop-color:rgb(100%,76.470588%,19.215686%);stop-opacity:1;"/>
</linearGradient>
</defs>
<g id="surface1">
<path style=" stroke:none;fill-rule:nonzero;fill:url(#linear0);" d="M 34.699219 0.601562 C 16.976562 0.601562 18.082031 8.195312 18.082031 8.195312 L 18.101562 16.054688 L 35.019531 16.054688 L 35.019531 18.414062 L 11.382812 18.414062 C 11.382812 18.414062 0.0390625 17.144531 0.0390625 34.804688 C 0.0390625 52.460938 9.9375 51.835938 9.9375 51.835938 L 15.851562 51.835938 L 15.851562 43.640625 C 15.851562 43.640625 15.53125 33.867188 25.589844 33.867188 L 42.367188 33.867188 C 42.367188 33.867188 51.792969 34.015625 51.792969 24.875 L 51.792969 9.753906 C 51.792969 9.753906 53.226562 0.601562 34.699219 0.601562 Z M 25.375 5.886719 C 26.179688 5.886719 26.957031 6.207031 27.527344 6.765625 C 28.09375 7.332031 28.414062 8.097656 28.414062 8.894531 C 28.414062 9.695312 28.09375 10.453125 27.527344 11.019531 C 26.957031 11.585938 26.179688 11.898438 25.375 11.898438 C 24.5625 11.898438 23.792969 11.585938 23.21875 11.019531 C 22.648438 10.453125 22.332031 9.695312 22.332031 8.894531 C 22.332031 8.097656 22.648438 7.332031 23.21875 6.765625 C 23.792969 6.207031 24.5625 5.886719 25.375 5.886719 Z M 25.375 5.886719 "/>
<path style=" stroke:none;fill-rule:nonzero;fill:url(#linear1);" d="M 35.203125 69.179688 C 52.929688 69.179688 51.820312 61.59375 51.820312 61.59375 L 51.804688 53.730469 L 34.886719 53.730469 L 34.886719 51.371094 L 58.519531 51.371094 C 58.519531 51.371094 69.863281 52.636719 69.863281 34.980469 C 69.863281 17.320312 59.964844 17.945312 59.964844 17.945312 L 54.054688 17.945312 L 54.054688 26.140625 C 54.054688 26.140625 54.375 35.914062 44.316406 35.914062 L 27.535156 35.914062 C 27.535156 35.914062 18.109375 35.765625 18.109375 44.914062 L 18.109375 60.027344 C 18.109375 60.027344 16.679688 69.179688 35.203125 69.179688 Z M 44.53125 63.894531 C 43.722656 63.894531 42.949219 63.578125 42.378906 63.015625 C 41.808594 62.453125 41.484375 61.6875 41.488281 60.890625 C 41.484375 60.09375 41.808594 59.328125 42.378906 58.765625 C 42.949219 58.203125 43.722656 57.882812 44.53125 57.886719 C 45.335938 57.882812 46.109375 58.203125 46.683594 58.761719 C 47.253906 59.328125 47.574219 60.09375 47.574219 60.890625 C 47.574219 61.6875 47.253906 62.449219 46.683594 63.015625 C 46.109375 63.578125 45.335938 63.894531 44.53125 63.894531 Z M 44.53125 63.894531 "/>
</g>
</svg>
