<?xml version="1.0" encoding="UTF-8"?>
<svg xmlns="http://www.w3.org/2000/svg" xmlns:xlink="http://www.w3.org/1999/xlink" width="30px" height="30px" viewBox="0 0 30 30" version="1.1">
<g id="surface1">
<path style=" stroke:none;fill-rule:nonzero;fill:rgb(1.176471%,66.27451%,95.686275%);fill-opacity:1;" d="M 30 6.636719 C 28.871094 7.128906 27.679688 7.453125 26.457031 7.605469 C 27.742188 6.84375 28.707031 5.632812 29.160156 4.207031 C 27.957031 4.921875 26.636719 5.425781 25.261719 5.695312 C 23.535156 3.855469 20.859375 3.253906 18.511719 4.179688 C 16.164062 5.109375 14.621094 7.378906 14.625 9.902344 C 14.625 10.390625 14.664062 10.859375 14.765625 11.304688 C 9.816406 11.0625 5.207031 8.722656 2.089844 4.871094 C 0.449219 7.679688 1.277344 11.28125 3.980469 13.089844 C 3.003906 13.066406 2.050781 12.804688 1.199219 12.332031 L 1.199219 12.402344 C 1.203125 15.328125 3.261719 17.851562 6.128906 18.445312 C 5.601562 18.582031 5.058594 18.652344 4.515625 18.648438 C 4.125 18.652344 3.734375 18.617188 3.351562 18.542969 C 4.164062 21.042969 6.46875 22.761719 9.097656 22.828125 C 6.921875 24.527344 4.234375 25.453125 1.472656 25.449219 C 0.96875 25.449219 0.484375 25.425781 0 25.363281 C 2.8125 27.175781 6.089844 28.136719 9.433594 28.125 C 20.753906 28.125 26.941406 18.75 26.941406 10.625 C 26.941406 10.351562 26.929688 10.089844 26.917969 9.828125 C 28.128906 8.960938 29.175781 7.878906 30 6.636719 Z M 30 6.636719 "/>
</g>
</svg>
