<?xml version="1.0" encoding="UTF-8"?>
<svg xmlns="http://www.w3.org/2000/svg" xmlns:xlink="http://www.w3.org/1999/xlink" width="50px" height="50px" viewBox="0 0 50 50" version="1.1">
<defs>
<clipPath id="clip1">
  <path d="M 1 1 L 49 1 L 49 49 L 1 49 Z M 1 1 "/>
</clipPath>
<clipPath id="clip2">
  <path d="M 17.722656 1.238281 L 32.304688 1.238281 C 45.617188 1.238281 48.761719 4.40625 48.761719 17.722656 L 48.761719 32.304688 C 48.761719 45.617188 45.59375 48.761719 32.277344 48.761719 L 17.695312 48.761719 C 4.382812 48.761719 1.238281 45.59375 1.238281 32.277344 L 1.238281 17.695312 C 1.238281 4.40625 4.40625 1.238281 17.722656 1.238281 Z M 17.722656 1.238281 "/>
</clipPath>
</defs>
<g id="surface1">
<path style=" stroke:none;fill-rule:evenodd;fill:rgb(31.764706%,50.588235%,72.156863%);fill-opacity:1;" d="M 17.722656 1.238281 L 32.304688 1.238281 C 45.617188 1.238281 48.761719 4.40625 48.761719 17.722656 L 48.761719 32.304688 C 48.761719 45.617188 45.59375 48.761719 32.277344 48.761719 L 17.695312 48.761719 C 4.382812 48.761719 1.238281 45.59375 1.238281 32.277344 L 1.238281 17.695312 C 1.238281 4.40625 4.40625 1.238281 17.722656 1.238281 Z M 17.722656 1.238281 "/>
<g clip-path="url(#clip1)" clip-rule="nonzero">
<g clip-path="url(#clip2)" clip-rule="nonzero">
<rect x="0" y="0" width="50" height="50" style="fill:rgb(31.764706%,50.588235%,72.156863%);fill-opacity:1;stroke:none;"/>
</g>
</g>
<path style=" stroke:none;fill-rule:evenodd;fill:rgb(100%,100%,100%);fill-opacity:1;" d="M 40.148438 17.597656 C 40.371094 16.855469 40.148438 16.335938 39.109375 16.335938 L 35.644531 16.335938 C 34.753906 16.335938 34.355469 16.808594 34.132812 17.324219 C 34.132812 17.324219 32.375 21.632812 29.875 24.40625 C 29.0625 25.222656 28.710938 25.46875 28.269531 25.46875 C 28.046875 25.46875 27.722656 25.222656 27.722656 24.480469 L 27.722656 17.597656 C 27.722656 16.707031 27.472656 16.335938 26.730469 16.335938 L 21.289062 16.335938 C 20.742188 16.335938 20.398438 16.757812 20.398438 17.128906 C 20.398438 17.96875 21.632812 18.171875 21.785156 20.496094 L 21.785156 25.59375 C 21.785156 26.707031 21.582031 26.90625 21.140625 26.90625 C 19.972656 26.90625 17.101562 22.597656 15.421875 17.648438 C 15.070312 16.730469 14.753906 16.335938 13.859375 16.335938 L 10.398438 16.335938 C 9.40625 16.335938 9.207031 16.808594 9.207031 17.324219 C 9.207031 18.242188 10.371094 22.800781 14.679688 28.816406 C 17.550781 32.921875 21.582031 35.148438 25.246094 35.148438 C 27.449219 35.148438 27.722656 34.65625 27.722656 33.816406 L 27.722656 30.691406 C 27.722656 29.699219 27.921875 29.503906 28.640625 29.503906 C 29.160156 29.503906 30.027344 29.753906 32.078125 31.730469 C 34.433594 34.082031 34.824219 35.148438 36.140625 35.148438 L 39.601562 35.148438 C 40.59375 35.148438 41.085938 34.65625 40.792969 33.683594 C 40.46875 32.722656 39.355469 31.316406 37.871094 29.628906 C 37.058594 28.664062 35.839844 27.648438 35.496094 27.128906 C 34.972656 26.457031 35.125 26.164062 35.496094 25.59375 C 35.496094 25.566406 39.726562 19.628906 40.148438 17.597656 Z M 40.148438 17.597656 "/>
</g>
</svg>
