<?xml version="1.0" encoding="UTF-8"?>
<svg xmlns="http://www.w3.org/2000/svg" xmlns:xlink="http://www.w3.org/1999/xlink" width="30px" height="30px" viewBox="0 0 30 30" version="1.1">
<defs>
<linearGradient id="linear0" gradientUnits="userSpaceOnUse" x1="512.001" y1="0.978" x2="512.001" y2="1025.023" gradientTransform="matrix(0.0292969,0,0,0.0292969,0,0)">
<stop offset="0" style="stop-color:rgb(38.039216%,99.215686%,49.019608%);stop-opacity:1;"/>
<stop offset="1" style="stop-color:rgb(16.862745%,72.156863%,14.901961%);stop-opacity:1;"/>
</linearGradient>
</defs>
<g id="surface1">
<path style=" stroke:none;fill-rule:nonzero;fill:url(#linear0);" d="M 30 22.417969 C 30 22.582031 29.992188 22.9375 29.984375 23.210938 C 29.960938 23.886719 29.90625 24.753906 29.824219 25.148438 C 29.703125 25.746094 29.519531 26.308594 29.28125 26.773438 C 29 27.328125 28.640625 27.820312 28.210938 28.25 C 27.785156 28.675781 27.289062 29.035156 26.738281 29.316406 C 26.265625 29.554688 25.703125 29.738281 25.105469 29.859375 C 24.710938 29.9375 23.847656 29.992188 23.179688 30.015625 C 22.90625 30.023438 22.546875 30.03125 22.386719 30.03125 L 7.613281 30.027344 C 7.449219 30.027344 7.09375 30.023438 6.816406 30.011719 C 6.144531 29.988281 5.273438 29.933594 4.878906 29.855469 C 4.285156 29.734375 3.722656 29.550781 3.253906 29.3125 C 2.703125 29.027344 2.207031 28.667969 1.78125 28.238281 C 1.351562 27.8125 0.996094 27.316406 0.714844 26.765625 C 0.472656 26.296875 0.289062 25.730469 0.167969 25.132812 C 0.0898438 24.742188 0.0390625 23.878906 0.015625 23.210938 C 0.00390625 22.933594 0 22.578125 0 22.414062 L 0 7.640625 C 0 7.476562 0.0078125 7.121094 0.015625 6.847656 C 0.0390625 6.171875 0.09375 5.304688 0.175781 4.910156 C 0.296875 4.3125 0.480469 3.75 0.71875 3.285156 C 1 2.730469 1.359375 2.238281 1.789062 1.808594 C 2.214844 1.382812 2.710938 1.023438 3.261719 0.742188 C 3.734375 0.503906 4.296875 0.320312 4.894531 0.199219 C 5.289062 0.121094 6.152344 0.0664062 6.820312 0.0429688 C 7.09375 0.0351562 7.453125 0.0273438 7.613281 0.0273438 L 22.386719 0.03125 C 22.550781 0.03125 22.90625 0.0351562 23.183594 0.046875 C 23.855469 0.0703125 24.726562 0.125 25.121094 0.203125 C 25.714844 0.324219 26.277344 0.507812 26.746094 0.746094 C 27.296875 1.03125 27.792969 1.390625 28.21875 1.820312 C 28.648438 2.246094 29.003906 2.742188 29.289062 3.292969 C 29.527344 3.761719 29.710938 4.328125 29.832031 4.925781 C 29.910156 5.316406 29.960938 6.179688 29.984375 6.847656 C 29.996094 7.125 30 7.480469 30 7.644531 Z M 30 22.417969 "/>
<path style=" stroke:none;fill-rule:nonzero;fill:rgb(100%,100%,100%);fill-opacity:1;" d="M 22.949219 7.125 C 20.917969 5.09375 18.214844 3.972656 15.339844 3.972656 C 9.410156 3.972656 4.582031 8.796875 4.578125 14.726562 C 4.578125 16.621094 5.074219 18.472656 6.015625 20.101562 L 4.488281 25.675781 L 10.191406 24.179688 C 11.765625 25.039062 13.53125 25.488281 15.332031 25.488281 L 15.339844 25.488281 C 21.265625 25.488281 26.09375 20.664062 26.097656 14.734375 C 26.097656 11.859375 24.980469 9.160156 22.949219 7.125 Z M 15.339844 23.671875 L 15.335938 23.671875 C 13.730469 23.671875 12.15625 23.242188 10.785156 22.425781 L 10.457031 22.234375 L 7.074219 23.121094 L 7.976562 19.824219 L 7.761719 19.484375 C 6.867188 18.0625 6.394531 16.417969 6.394531 14.726562 C 6.398438 9.796875 10.410156 5.789062 15.339844 5.789062 C 17.730469 5.789062 19.976562 6.71875 21.664062 8.410156 C 23.351562 10.101562 24.28125 12.347656 24.28125 14.734375 C 24.277344 19.664062 20.265625 23.671875 15.339844 23.671875 Z M 20.242188 16.976562 C 19.972656 16.84375 18.652344 16.195312 18.40625 16.105469 C 18.160156 16.015625 17.980469 15.96875 17.800781 16.238281 C 17.621094 16.507812 17.105469 17.113281 16.949219 17.292969 C 16.792969 17.472656 16.636719 17.492188 16.367188 17.359375 C 16.097656 17.226562 15.234375 16.941406 14.207031 16.027344 C 13.40625 15.3125 12.867188 14.433594 12.710938 14.164062 C 12.554688 13.894531 12.695312 13.75 12.828125 13.617188 C 12.949219 13.496094 13.097656 13.300781 13.230469 13.144531 C 13.367188 12.988281 13.410156 12.875 13.5 12.695312 C 13.589844 12.515625 13.546875 12.359375 13.476562 12.226562 C 13.410156 12.089844 12.875 10.769531 12.648438 10.230469 C 12.429688 9.707031 12.210938 9.777344 12.042969 9.769531 C 11.886719 9.761719 11.707031 9.761719 11.527344 9.761719 C 11.351562 9.761719 11.058594 9.828125 10.8125 10.097656 C 10.566406 10.363281 9.871094 11.015625 9.871094 12.339844 C 9.871094 13.660156 10.835938 14.9375 10.96875 15.117188 C 11.105469 15.296875 12.863281 18.011719 15.5625 19.175781 C 16.203125 19.453125 16.703125 19.617188 17.09375 19.742188 C 17.738281 19.945312 18.324219 19.917969 18.785156 19.847656 C 19.304688 19.769531 20.378906 19.199219 20.601562 18.570312 C 20.824219 17.941406 20.824219 17.40625 20.757812 17.292969 C 20.691406 17.179688 20.511719 17.113281 20.242188 16.976562 Z M 20.242188 16.976562 "/>
</g>
</svg>
